<svg width="60" height="60" viewBox="0 0 32 32" fill="none" xmlns="http://www.w3.org/2000/svg">
<g clip-path="url(#clip0_1138_13679)">
<path d="M32 9.14502H30.47V30.475H32V9.14502Z" fill="#C05A02"/>
<path d="M30.47 1.52502H25.9V9.14502H27.43V3.04502H28.95V9.14502H30.47V1.52502Z" fill="#C05A02"/>
<path d="M28.9501 24.385H27.4301V25.905H28.9501V24.385Z" fill="#C05A02"/>
<path d="M28.9501 18.285H27.4301V19.805H28.9501V18.285Z" fill="#C05A02"/>
<path d="M28.9501 12.1951H27.4301V13.7151H28.9501V12.1951Z" fill="#C05A02"/>
<path d="M24.38 12.195H21.33V13.715H24.38V30.475H25.9V9.14502H24.38V12.195Z" fill="#C05A02"/>
<path d="M22.86 3.04504H21.33V4.57504H22.86V3.04504Z" fill="#C05A02"/>
<path d="M22.8601 18.285H19.8101V21.335H22.8601V18.285Z" fill="#C05A02"/>
<path d="M21.33 1.52502H18.28V3.04502H21.33V1.52502Z" fill="#C05A02"/>
<path d="M21.33 13.715H18.28V15.235H21.33V13.715Z" fill="#C05A02"/>
<path d="M18.28 24.385H15.24V27.425H18.28V24.385Z" fill="#C05A02"/>
<path d="M18.28 15.235H15.24V16.765H18.28V15.235Z" fill="#C05A02"/>
<path d="M18.28 3.04504H15.24V4.57504H18.28V3.04504Z" fill="#C05A02"/>
<path d="M15.24 1.52502H13.71V3.04502H15.24V1.52502Z" fill="#C05A02"/>
<path d="M13.71 12.1951H10.66V13.7151H12.19V30.4751H13.71V18.2851H15.24V16.7651H13.71V12.1951Z" fill="#C05A02"/>
<path d="M10.66 6.09497H9.14001V7.61497H10.66V6.09497Z" fill="#C05A02"/>
<path d="M10.66 18.285H7.62V21.335H10.66V18.285Z" fill="#C05A02"/>
<path d="M10.66 13.715H7.62V15.235H10.66V13.715Z" fill="#C05A02"/>
<path d="M9.13997 4.57507H6.08997V6.09507H9.13997V4.57507Z" fill="#C05A02"/>
<path d="M7.61995 15.235H4.56995V16.765H7.61995V15.235Z" fill="#C05A02"/>
<path d="M6.09005 24.385H3.05005V27.425H6.09005V24.385Z" fill="#C05A02"/>
<path d="M6.09005 6.09497H3.05005V7.61497H6.09005V6.09497Z" fill="#C05A02"/>
<path d="M4.57002 16.765H1.52002V18.285H4.57002V16.765Z" fill="#C05A02"/>
<path d="M3.05002 4.57507H1.52002V6.09507H3.05002V4.57507Z" fill="#C05A02"/>
<path d="M1.52 18.285H0V30.475H1.52V18.285Z" fill="#C05A02"/>
</g>
<defs>
<clipPath id="clip0_1138_13679">
<rect width="32" height="32" fill="white"/>
</clipPath>
</defs>
</svg>
