<svg width="40" height="40" viewBox="0 0 32 32" fill="none" xmlns="http://www.w3.org/2000/svg">
<g clip-path="url(#clip0_1138_2542)">
<path d="M0.759995 22.09V26.67H3.80999V25.14H2.28999V23.62H3.80999V25.14H6.85999V26.67H9.90999V28.19H11.43V29.71H9.90999V31.24H14.48V29.71H12.96V28.19H14.48V26.67H17.53V25.14H20.57V23.62H23.62V22.09H26.67V20.57H29.72V22.09H31.24V17.52H29.72V16H26.67V12.95H28.19V6.85999H26.67V8.37999H25.15V9.89998H26.67V11.43H25.15V12.95H22.1V14.48H19.05V16H16V17.52H12.96V19.05H11.43V17.52H9.90999V16H6.85999V14.48H3.80999V12.95H2.28999V11.43H3.80999V12.95H6.85999V14.48H9.90999V16H16V14.48H19.05V12.95H22.1V11.43H25.15V9.89998H20.57V11.43H17.53V12.95H14.48V14.48H11.43V12.95H8.37999V11.43H5.33999V9.89998H2.28999V8.37999H0.759995V14.48H2.28999V16H0.759995V20.57H2.28999V22.09H0.759995ZM2.28999 17.52H3.80999V16H5.33999V17.52H8.37999V19.05H9.90999V20.57H14.48V19.05H17.53V17.52H20.57V16H23.62V14.48H25.15V17.52H22.1V19.05H19.05V20.57H16V22.09H12.96V23.62H9.90999V22.09H6.85999V20.57H3.80999V19.05H2.28999V17.52Z" fill="#C05A02"/>
<path d="M29.72 22.09H26.67V23.62H29.72V22.09Z" fill="#C05A02"/>
<path d="M26.67 23.62H23.62V25.14H26.67V23.62Z" fill="#C05A02"/>
<path d="M26.67 5.32996H23.62V6.85996H26.67V5.32996Z" fill="#C05A02"/>
<path d="M23.62 C05A0225.14H20.57V26.67H23.62V25.14Z" fill="#C05A02"/>
<path d="M23.62 3.81006H20.57V5.33006H23.62V3.81006Z" fill="#C05A02"/>
<path d="M20.57 26.67H17.53V28.19H20.57V26.67Z" fill="#C05A02"/>
<path d="M20.57 2.28003H17.53V3.81003H20.57V2.28003Z" fill="#C05A02"/>
<path d="M17.53 0.76001H14.48V2.28001H17.53V0.76001Z" fill="#C05A02"/>
<path d="M17.53 28.1901H14.48V29.7101H17.53V28.1901Z" fill="#C05A02"/>
<path d="M14.48 2.28003H11.43V3.81003H14.48V2.28003Z" fill="#C05A02"/>
<path d="M11.43 3.81006H8.37999V5.33006H11.43V3.81006Z" fill="#C05A02"/>
<path d="M9.91 28.1901H6.86V29.7101H9.91V28.1901Z" fill="#C05A02"/>
<path d="M9.91 11.43H16V9.89996H19.05V8.37996H22.1V6.85996H17.53V5.32996H12.96V6.85996H9.91V8.37996H6.86V9.89996H9.91V11.43Z" fill="#C05A02"/>
<path d="M8.38 5.32996H5.34V6.85996H8.38V5.32996Z" fill="#C05A02"/>
<path d="M6.86 26.67H3.81V28.19H6.86V26.67Z" fill="#C05A02"/>
<path d="M5.33999 6.85999H2.28999V8.37999H5.33999V6.85999Z" fill="#C05A02"/>
</g>
<defs>
<clipPath id="clip0_1138_2542">
<rect width="32" height="32" fill="white"/>
</clipPath>
</defs>
</svg>
