<svg width="40" height="40" viewBox="0 0 32 32" fill="none" xmlns="http://www.w3.org/2000/svg">
<g clip-path="url(#clip0_1138_13469)">
<path d="M28.19 9.14001V10.67H26.67V12.19H28.19V13.72H29.71V12.19H31.24V10.67H29.71V9.14001H28.19Z" fill="#C05A02"/>
<path d="M29.7101 25.91H28.1901V27.43H29.7101V25.91Z" fill="#C05A02"/>
<path d="M25.14 24.3801H23.62V25.9101H25.14V27.4301H26.67V19.8101H25.14V24.3801Z" fill="#C05A02"/>
<path d="M26.67 4.56995H25.14V6.09995H26.67V4.56995Z" fill="#C05A02"/>
<path d="M25.14 18.29H23.62V19.81H25.14V18.29Z" fill="#C05A02"/>
<path d="M20.57 4.57V3.05H19.05V1.52H17.52V0H12.95V1.52H11.43V3.05H9.89998V4.57H8.37999V16.76H6.85999V18.29H8.37999V22.86H6.85999V24.38H9.89998V7.62H20.57V24.38H23.62V22.86H22.1V18.29H23.62V16.76H22.1V4.57H20.57Z" fill="#C05A02"/>
<path d="M19.05 27.4301H17.52V30.4801H19.05V27.4301Z" fill="#C05A02"/>
<path d="M20.57 24.38H9.90002V25.91H20.57V24.38Z" fill="#C05A02"/>
<path d="M17.52 18.29H16V19.81H17.52V18.29Z" fill="#C05A02"/>
<path d="M17.52 10.67H16V12.19H17.52V10.67Z" fill="#C05A02"/>
<path d="M16 27.4301H14.48V32.0001H16V27.4301Z" fill="#C05A02"/>
<path d="M16 19.8101H14.48V21.3301H16V19.8101Z" fill="#C05A02"/>
<path d="M16 16.76H14.48V18.29H16V16.76Z" fill="#C05A02"/>
<path d="M16 12.1899H14.48V13.7199H16V12.1899Z" fill="#C05A02"/>
<path d="M16 9.14001H14.48V10.67H16V9.14001Z" fill="#C05A02"/>
<path d="M14.48 18.29H12.95V19.81H14.48V18.29Z" fill="#C05A02"/>
<path d="M14.48 10.67H12.95V12.19H14.48V10.67Z" fill="#C05A02"/>
<path d="M12.9501 27.4301H11.4301V30.4801H12.9501V27.4301Z" fill="#C05A02"/>
<path d="M6.85996 18.29H5.32996V19.81H6.85996V18.29Z" fill="#C05A02"/>
<path d="M5.33006 19.8101H3.81006V27.4301H5.33006V25.9101H6.86006V24.3801H5.33006V19.8101Z" fill="#C05A02"/>
<path d="M5.33006 4.56995H3.81006V6.09995H5.33006V4.56995Z" fill="#C05A02"/>
<path d="M3.81004 12.1899H2.29004V13.7199H3.81004V12.1899Z" fill="#C05A02"/>
<path d="M3.81004 6.09998H2.29004V7.61998H3.81004V6.09998Z" fill="#C05A02"/>
<path d="M3.81004 3.05005H2.29004V4.57005H3.81004V3.05005Z" fill="#C05A02"/>
<path d="M2.29001 28.95H0.76001V30.4799H2.29001V28.95Z" fill="#C05A02"/>
<path d="M2.29001 4.56995H0.76001V6.09995H2.29001V4.56995Z" fill="#C05A02"/>
</g>
<defs>
<clipPath id="clip0_1138_13469">
<rect width="32" height="32" fill="white"/>
</clipPath>
</defs>
</svg>
