<svg width="40" height="40" viewBox="0 0 32 32" fill="none" xmlns="http://www.w3.org/2000/svg">
<g clip-path="url(#clip0_1128_22877)">
<path d="M20.57 0V1.52H19.05V3.05H17.52V7.62H14.48V9.14H17.52V13.71H28.19V0H20.57ZM26.67 12.19H19.05V4.57H22.09V1.52H26.67V12.19Z" fill="#C05A02"/>
<path d="M20.57 18.29V19.81H19.05V21.33H17.52V25.9H14.48V27.43H17.52V32H28.19V18.29H20.57ZM26.67 30.48H19.05V22.86H22.09V19.81H26.67V30.48Z" fill="#C05A02"/>
<path d="M25.14 24.38H23.62V25.9H25.14V24.38Z" fill="#C05A02"/>
<path d="M25.14 6.09H23.62V7.62H25.14V6.09Z" fill="#C05A02"/>
<path d="M25.14 27.43H20.57V28.95H25.14V27.43Z" fill="#C05A02"/>
<path d="M25.14 9.14H20.57V10.67H25.14V9.14Z" fill="#C05A02"/>
<path d="M22.09 24.38H20.57V25.9H22.09V24.38Z" fill="#C05A02"/>
<path d="M22.09 6.09H20.57V7.62H22.09V6.09Z" fill="#C05A02"/>
<path d="M12.95 25.9H9.89999V27.43H12.95V25.9Z" fill="#C05A02"/>
<path d="M12.95 7.62H9.89999V9.14H12.95V7.62Z" fill="#C05A02"/>
<path d="M8.38 25.9H5.33V27.43H8.38V25.9Z" fill="#C05A02"/>
<path d="M5.33 6.09H3.81V10.67H5.33V9.14H8.38V7.62H5.33V6.09Z" fill="#C05A02"/>
<path d="M5.33 24.38H3.81V25.9H5.33V24.38Z" fill="#C05A02"/>
<path d="M5.33 18.29H3.81V22.86H5.33V18.29Z" fill="#C05A02"/>
<path d="M5.33 12.19H3.81V16.76H5.33V12.19Z" fill="#C05A02"/>
<path d="M5.33 0H3.81V4.57H5.33V0Z" fill="#C05A02"/>
</g>
<defs>
<clipPath id="clip0_1128_22877">
<rect width="32" height="32" fill="white"/>
</clipPath>
</defs>
</svg>
