<svg width="40" height="40" viewBox="0 0 32 32" fill="none" xmlns="http://www.w3.org/2000/svg">
<g clip-path="url(#clip0_1128_20932)">
<path d="M30.48 25.9H28.95V27.43H32V21.33H30.48V25.9Z" fill="#C05A02"/>
<path d="M28.95 4.57001V6.09001H30.48V10.67H32V4.57001H28.95Z" fill="#C05A02"/>
<path d="M30.48 19.81H28.95V21.33H30.48V19.81Z" fill="#C05A02"/>
<path d="M30.48 10.67H28.95V12.19H30.48V10.67Z" fill="#C05A02"/>
<path d="M28.95 24.38H27.43V25.9H28.95V24.38Z" fill="#C05A02"/>
<path d="M28.95 6.09H27.43V7.62H28.95V6.09Z" fill="#C05A02"/>
<path d="M22.86 22.86V27.43H24.38V28.95H25.91V30.48H21.34V32H28.95V28.95H27.43V27.43H25.91V24.38H27.43V22.86H22.86Z" fill="#C05A02"/>
<path d="M28.95 12.19H22.86V13.71H28.95V12.19Z" fill="#C05A02"/>
<path d="M25.91 3.04999H24.38V4.56999H25.91V3.04999Z" fill="#C05A02"/>
<path d="M22.86 9.14001H27.43V7.62001H24.38V4.57001H22.86V9.14001Z" fill="#C05A02"/>
<path d="M25.91 1.52V3.05H27.43V0H21.34V1.52H25.91Z" fill="#C05A02"/>
<path d="M21.34 28.95H19.81V30.48H21.34V28.95Z" fill="#C05A02"/>
<path d="M21.34 19.81H19.81V21.33H21.34V19.81Z" fill="#C05A02"/>
<path d="M19.81 12.19H18.29V9.14H15.24V3.05H13.72V1.52H12.19V0H4.57V3.05H6.1V1.52H10.67V3.05H12.19V9.14H13.72V10.67H15.24V12.19H16.76V13.71H18.29V15.24H19.81V16.76H21.34V18.28H22.86V19.81H28.95V18.28H24.38V16.76H22.86V13.71H19.81V12.19Z" fill="#C05A02"/>
<path d="M21.34 1.51999H19.81V3.04999H21.34V1.51999Z" fill="#C05A02"/>
<path d="M19.81 22.86H18.29V28.95H19.81V22.86Z" fill="#C05A02"/>
<path d="M19.81 18.28H18.29V19.81H19.81V18.28Z" fill="#C05A02"/>
<path d="M19.81 3.04999H18.29V9.13999H19.81V3.04999Z" fill="#C05A02"/>
<path d="M18.29 21.33H16.76V22.86H18.29V21.33Z" fill="#C05A02"/>
<path d="M18.29 16.76H16.76V18.28H18.29V16.76Z" fill="#C05A02"/>
<path d="M16.76 19.81H15.24V21.33H16.76V19.81Z" fill="#C05A02"/>
<path d="M16.76 15.24H15.24V16.76H16.76V15.24Z" fill="#C05A02"/>
<path d="M15.24 21.33H13.72V22.86H15.24V21.33Z" fill="#C05A02"/>
<path d="M15.24 18.28H13.72V19.81H15.24V18.28Z" fill="#C05A02"/>
<path d="M15.24 13.71H13.72V15.24H15.24V13.71Z" fill="#C05A02"/>
<path d="M13.72 22.86H12.19V28.95H13.72V22.86Z" fill="#C05A02"/>
<path d="M13.72 16.76H12.19V18.28H13.72V16.76Z" fill="#C05A02"/>
<path d="M13.72 12.19H12.19V13.71H13.72V12.19Z" fill="#C05A02"/>
<path d="M12.19 28.95H10.67V30.48H12.19V28.95Z" fill="#C05A02"/>
<path d="M12.19 15.24H10.67V16.76H12.19V15.24Z" fill="#C05A02"/>
<path d="M12.19 10.67H10.67V12.19H12.19V10.67Z" fill="#C05A02"/>
<path d="M10.67 16.76H9.15V18.28H10.67V16.76Z" fill="#C05A02"/>
<path d="M10.67 13.71H9.15V15.24H10.67V13.71Z" fill="#C05A02"/>
<path d="M6.1 30.48V28.95H4.57V32H10.67V30.48H6.1Z" fill="#C05A02"/>
<path d="M9.15 22.86H4.57V24.38H7.62V27.43H9.15V22.86Z" fill="#C05A02"/>
<path d="M9.15 12.19H3.05V13.71H9.15V12.19Z" fill="#C05A02"/>
<path d="M7.62 27.43H6.1V28.95H7.62V27.43Z" fill="#C05A02"/>
<path d="M7.62 3.04999H6.1V4.56999H7.62V3.04999Z" fill="#C05A02"/>
<path d="M9.15 18.28H3.05V19.81H9.15V18.28Z" fill="#C05A02"/>
<path d="M9.15 9.14001V4.57001H7.62V7.62001H4.57V9.14001H9.15Z" fill="#C05A02"/>
<path d="M4.57 24.38H3.05V25.9H4.57V24.38Z" fill="#C05A02"/>
<path d="M4.57 6.09H3.05V7.62H4.57V6.09Z" fill="#C05A02"/>
<path d="M3.05 19.81H1.53V21.33H3.05V19.81Z" fill="#C05A02"/>
<path d="M3.05 10.67H1.53V12.19H3.05V10.67Z" fill="#C05A02"/>
<path d="M1.53 21.33H0V27.43H3.05V25.9H1.53V21.33Z" fill="#C05A02"/>
<path d="M1.53 6.09001H3.05V4.57001H0V10.67H1.53V6.09001Z" fill="#C05A02"/>
</g>
<defs>
<clipPath id="clip0_1128_20932">
<rect width="32" height="32" fill="white"/>
</clipPath>
</defs>
</svg>
